<?xml version="1.0" encoding="UTF-8"?>
<svg id="KMKC_Logo" xmlns="http://www.w3.org/2000/svg" version="1.1" viewBox="0 0 2179 2068">
  <!-- Generator: Adobe Illustrator 29.5.1, SVG Export Plug-In . SVG Version: 2.1.0 Build 141)  -->
  <defs>
    <style>
      .st0 {
        fill: #353795;
      }

      .st1 {
        fill: #ed1c24;
      }
    </style>
  </defs>
  <path class="st0" d="M1814.1,799.8c-41.2-96.7-100.2-183.5-175.3-258-75.1-74.5-162.6-133.1-260-173.9-96.3-40.4-198.3-61.8-303.4-63.6h0c-.7,0-1.3,0-2,0-4.3,0-8.7-.1-13-.1v.2c-105.1,1.9-207.1,23.2-303.4,63.7-97.4,40.9-184.9,99.4-260,174-75.1,74.6-134.1,161.4-175.3,258-42.7,100.1-64.3,206.4-64.3,315.9s21.6,215.8,64.3,315.9c41.2,96.6,100.1,183.4,175.2,258,75.1,74.5,162.5,133.1,259.9,174,94.2,39.6,193.9,60.9,296.7,63.6v.2h8.8c0,0,.1,0,.2,0,3.7,0,7.4,0,11.1.1h1.4s7.4,0,7.4,0v-.4c102.8-2.7,202.5-24,296.7-63.6,97.4-40.9,184.8-99.4,259.9-173.9,75.1-74.5,134-161.3,175.2-258,42.6-100.1,64.3-206.3,64.3-315.9s-21.6-215.9-64.3-316ZM1318.7,1681.7c-16.1-5.3-32.6-10-49.3-14.1,4.1-7.7,8.2-15.4,12.2-23.2,20.4-39.7,42.2-87.5,62.4-142.3,55.9,9.9,111.4,23.1,166.3,39.5-35.4,59.8-78.1,115.2-127.2,164.8-20.9-9.2-42.4-17.5-64.5-24.6ZM625.3,1541.4c53-15.6,108.9-28.3,166.9-38.1,20.1,54.4,41.8,101.8,62,141.2,5.1,9.9,10.3,19.7,15.6,29.4-13.2,3.6-26.3,7.5-39.2,11.7-25,8.1-48.9,17.3-71.5,27.3-51.9-51.3-96.9-109-133.9-171.5ZM491.6,1121.8c.5,72.8,10.7,145.4,30.2,216.5-66,17.3-131.1,37.7-194.7,61.2-33.4-86.4-52-180-52.7-277.7h217.2ZM627.9,691.3c34.3,9.7,68.7,18.2,103.7,25.4,13.6,2.8,27.3,5.4,41.1,7.9-5.2,15.1-10.1,30.4-14.6,45.9-12.4,42.7-22.1,86.7-29.1,131.9-61.4-9.3-121.4-21.1-180.2-35.5,19.8-61.2,46.6-120.2,79.2-175.5ZM532.9,862.9c-65.9-16.7-130.4-36.7-193.7-60,27.6-63.5,63.2-122.8,105.7-176.6,55.9,23.9,111.3,43.9,167.2,60.5-32.9,56.4-59.5,115.6-79.2,176.2ZM771.2,508.1c28.5,12.3,57.9,22.6,88.3,31-32.3,53.1-59.4,109.8-81.1,169.4-48.1-8.4-95-19.1-141.4-32.2,37.9-61.6,83.1-118.3,134.2-168.3ZM1508,677.3c-48.6,13.6-98.5,24.6-149.8,33.3-21.3-58.9-47.9-115.1-79.5-167.7,11.6-2.9,23-6.2,34.2-9.6,21.7-6.7,42.7-14.4,63.1-23,51,49.5,95.3,105.6,132,167.1ZM1591.4,867.7c-60.3,15.9-121.2,28.5-184,37.9-7-46.4-16.9-91.5-29.7-135.3-4.3-14.7-8.9-29.2-13.8-43.6,19.8-3.4,39.5-7.1,58.9-11.2,31.8-6.7,63.1-14.5,93.9-23.1,31.1,54.8,56.3,113.6,74.6,175.3ZM1534.1,687.4c55.1-16.3,108.4-35.7,159.3-58,40.9,52.2,75.3,109.6,102.2,170.9-62.9,24.8-124.8,45.6-187.3,62.8-18.1-61.4-42.9-120.2-74.2-175.7ZM743.1,921.6c101.4,14.5,206.5,22.2,316.3,23.1v160h-326.7c-1.2-63.1,2.3-124.2,10.4-183.2ZM1059.4,566.9v166.1c-93.6-.9-180.7-7.9-264.2-21.6,21.6-58.7,48.8-114.7,81.5-167.7,57.3,14.3,118,22.1,182.7,23.3ZM1059.4,750v177.8c-108.9-1-213.2-8.6-313.8-23,9.5-61.5,24.1-120.7,43.8-177.4,85.2,14.2,174.2,21.6,270,22.6ZM1403.1,1104.8h-326.7v-159.9c2.3,0,4.5,0,6.8,0,111.2,0,213.3-6.7,309.9-20.3,7.8,58.1,11.2,118.2,10,180.2ZM1083.2,927.9c-2.3,0-4.5,0-6.8,0v-177.8c1.5,0,3,0,4.5,0,91.2,0,180.4-6.9,266.2-20.6,19.7,57,34.2,116.6,43.6,178.5-96.1,13.5-197,19.8-307.5,19.9ZM1059.4,1121.8v145.9c-104.6,1.2-207.7,9.2-307.9,23.9-9.7-53.3-16.3-110.1-18.3-169.8h326.2ZM1059.4,1284.7v177.8c-88,1.2-174.1,8.6-256.1,21.8-18.8-52.7-35.9-111.6-48.6-175.8,99.5-14.6,201.2-22.6,304.7-23.8ZM1076.4,1284.5c3.6,0,7.2,0,10.8,0,104,0,201.2,6.3,294.8,19.2-12.7,65.5-30,125.5-49.1,179.2-81.9-13.7-164.7-20.6-248-20.6s-5.7,0-8.5,0v-177.8ZM1087.2,1267.5c-3.6,0-7.2,0-10.8,0v-145.7h326.2c-1.9,57.9-8.2,113.1-17.5,165.1-93.8-13-192.1-19.4-297.9-19.4ZM1419.6,1121.8h207.6c-.5,71.4-10.1,141.2-27.9,208.1-38.1-10.1-76.1-18.9-114.4-26.4-27.3-5.3-54.9-10.1-82.9-14.2,9.4-52.7,15.7-108.7,17.7-167.5ZM1420.1,1104.8c1.2-62.5-2.3-123.5-10.4-182.6,23.6-3.5,46.8-7.5,69.8-11.9,39.1-7.4,77.9-16.2,116.5-26.5,19.5,70.5,30.2,144.6,31.1,220.9h-207.1ZM1341.4,713.4c-83.7,13.1-170.6,19.7-260.5,19.7s-3,0-4.5,0v-166c.5,0,1,0,1.5,0,64,0,125.5-6.7,183.4-20,32.1,52.6,58.8,108.1,80.1,166.2ZM1077.9,550.1c-.5,0-1,0-1.5,0v-216.2c31.5,24.1,105,87.3,175.4,197.8-55,12.1-113.2,18.4-173.9,18.4ZM1059.4,549.9c-61.2-1.2-118.8-8.3-173.2-21.5,69.7-108.4,142-170.6,173.2-194.5v215.9ZM868.9,524c-29-7.8-57.1-17.4-84.3-28.8,70.5-65.9,151.4-119,239.3-154.1-38.5,33.4-98,93-155,182.9ZM726.5,919.2c-8.4,60.1-12,122.1-10.8,185.6h-207c1.1-75.2,13.3-149.9,35-221.7,59.7,14.7,120.6,26.7,182.8,36.1ZM716.2,1121.8c2,60.6,8.6,118.2,18.5,172.3-24,3.7-47.9,7.8-71.5,12.3-42.1,8-84,17.3-125.5,27.8-18.5-68.3-28.5-139.5-29-212.4h207.6ZM526.6,1354.7c1.8,6.2,3.7,12.4,5.7,18.5,17.6,54.8,40.6,107.6,68.7,157.8-58.5,18.1-113.4,39.7-163.8,64.5-42.1-55-77.1-115.5-103.7-180.2,63.1-23.3,127.5-43.5,193.1-60.6ZM542.3,1350.7c64.1-16.2,129.4-29.4,195.6-39.7,12.6,64.2,29.6,123.2,48.4,176.1-59,10.1-115.8,23.2-169.7,39.2-31.2-55.3-56.1-114.2-74.2-175.6ZM869.2,1636.8c-19.6-38.1-40.5-83.9-60-136.3,80.2-12.7,164.2-19.8,250.2-21v166.3c-57.4,1.7-115.9,9.8-172.7,23.9-5.9-10.6-11.7-21.5-17.5-32.8ZM1076.4,1479.3c2.8,0,5.7,0,8.5,0,81.4,0,162.2,6.7,242.1,19.9-19.6,52.9-40.8,99-60.5,137.5-4.7,9.2-9.5,18.2-14.2,26.9-54.5-12.1-111.7-18.2-170.6-18.2s-3.5,0-5.3,0v-166.1ZM1349.9,1485.9c19-53.9,36.3-114.2,48.9-179.7,66.7,9.9,131.6,23.2,195.8,40.3-18.2,63-43.6,123.4-75.5,180-55.9-16.8-112.3-30.3-169.2-40.6ZM1603.5,1373.1c2.4-7.5,4.7-14.9,6.9-22.4,64.2,17.7,127.8,39,192,64.4-26.3,64-60.8,123.8-102.2,178.3-54.5-24-109.7-44.7-165.5-62.1,28.1-50.3,51.2-103.2,68.8-158.1ZM1615,1334.2c18.8-69.7,28.6-141,29.1-212.4h217.2c-.7,97.6-19.3,191.2-52.6,277.5-65.5-25.8-129.7-47.4-193.7-65.1ZM1861.3,1104.8h-217.2c-.9-77.6-11.5-153.2-31.2-225.4,62.8-17.2,125.5-38.3,189.3-63.4,36.8,89.4,57.7,186.8,59.1,288.9ZM1682.4,615.6c-50.6,22-102.9,40.9-157,56.7-13.9-23.5-29-46.4-45.3-68.6-26.5-36.1-55.6-69.8-87.3-100.9,35.1-16,68.1-34.9,98.7-56.5,72.4,46,136.9,103.3,190.9,169.3ZM1475.8,436.6c-29.9,20.6-62.1,38.5-96.2,53.6-25.8-24.3-53.2-46.9-82.1-67.6-57.4-41.3-119.5-74.8-185.1-99.7,132.4,8.5,256.1,49,363.4,113.8ZM1362.4,497.4c-29.7,12.1-60.8,22.2-93.1,30.2-.7-1.1-1.4-2.2-2.1-3.3-57.4-90.6-117.3-150.5-155.9-183.8,94.3,36.6,179,90.2,251.1,156.9ZM1024.2,322.8c-92.4,36-179.5,92.6-255.8,165.4-34.9-15.7-68.4-34.4-100.6-56.2,105.7-62.2,226.9-101.1,356.4-109.2ZM651.8,441.7c33.2,23,67.6,42.7,103.5,59.3-36,35.9-69.4,75.4-99.7,118.2-12.1,17.2-23.6,34.7-34.5,52.5-55.4-16.3-110.1-35.9-165.1-59.2,55.4-66.9,121.5-124.7,195.7-170.8ZM332.6,818.6c63.8,23.5,128.8,43.7,195.2,60.6-22.6,74.3-35,150.5-36.1,225.7h-217.2c1.4-101,21.9-197.6,58.1-286.2ZM447.8,1609.2c49.8-24.2,104-45.3,161.7-63,12.1,20.7,25,40.8,38.8,60.5,28.5,40.6,60.2,78.6,94.9,113.5-39,18.5-73.6,39.7-102.7,62.9-73.4-47.3-138.6-106.1-192.8-173.9ZM656,1792.7c28.9-22.4,62.8-42.6,100.1-59.9,23.8,23,48.9,44.6,75.3,64.8,59.4,45.5,124.2,82.8,193.3,111.5-134.5-8.4-260.1-49.9-368.6-116.3ZM772.2,1725.5c33.3-14.4,68.9-26.6,106-36.4,27.8,49,58.2,94.8,89.4,134.4,21.1,26.7,42.3,50.3,62.3,69.4-97.1-40.4-184-97.5-257.7-167.3ZM895.3,1684.8c53.2-12.8,108.9-20.4,164.1-22.1v233.7c-43.7-36.8-104.8-107.5-164.1-211.6ZM1076.4,1896.4v-233.9c1.8,0,3.5,0,5.3,0,55.9,0,110.1,5.7,162,16.8-60.4,107.1-122.8,179.7-167.3,217.1ZM1168.2,1823.4c32.4-41.1,64.1-89,92.7-140.2,37.8,9.1,74.3,21.2,109.2,36.1-75.1,72.6-164.2,131.9-264.2,173.5,20-19.1,41.2-42.6,62.3-69.4ZM1111.2,1908.9c69-28.6,133.9-66,193.3-111.5,28.7-22,56-45.7,81.6-71.1,36.5,16.8,71.2,36.9,103.6,60-110.7,70-239.9,113.8-378.5,122.5ZM1505,1776.5c-33.2-24.2-68.7-45.3-106.1-63,32.2-33.1,61.7-68.8,88.5-106.9,13.7-19.6,26.6-39.7,38.7-60.3,55.1,17.1,109.6,37.4,163.4,60.9-52.1,65.5-114.4,122.8-184.4,169.3Z"/>
  <g id="Cross">
    <rect class="st1" x="1085.4" y="547.5" width="885.4" height="143.6"/>
    <rect class="st1" x="1456.3" y="132.2" width="143.6" height="1878.1"/>
  </g>
</svg>